<?xml version="1.0" encoding="utf-8"?>
<!-- Generator: Adobe Illustrator 25.2.3, SVG Export Plug-In . SVG Version: 6.00 Build 0)  -->
<svg version="1.1" id="Layer_1" xmlns="http://www.w3.org/2000/svg" xmlns:xlink="http://www.w3.org/1999/xlink" x="0px" y="0px"
	 viewBox="0 0 907 287" style="enable-background:new 0 0 907 287;" xml:space="preserve">
<style type="text/css">
	.st0{fill:#FFFFFF;}
</style>
<path class="st0" d="M379.2,156.1h-26.4v-13.4H421v13.4h-26.5v72.8h-15.3V156.1z"/>
<path class="st0" d="M450.6,142.7h13.3l37.1,86.2h-17.5l-8-19.7h-37.4l-7.8,19.7h-17.2L450.6,142.7z M470.1,196l-13.3-35l-13.5,35
	H470.1z"/>
<path class="st0" d="M509.5,142.7h15.3v72.5h36.6v13.6h-52L509.5,142.7z"/>
<path class="st0" d="M571.7,142.7h57.1v13.4h-41.8V178h39.6v12.9h-39.6v24.3H631v13.6h-59.3V142.7z"/>
<path class="st0" d="M646,142.7h20.3l40,64.5h0.2v-64.5h15.3v86.2h-19.4l-40.9-66.6h-0.2v66.6H646V142.7z"/>
<path class="st0" d="M758.3,156.1h-26.4v-13.4h68.2v13.4h-26.4v72.8h-15.3V156.1z"/>
<path class="st0" d="M802.2,185.6c-0.1-6.4,1.1-12.7,3.5-18.7c2.2-5.4,5.4-10.2,9.6-14.2c4.2-4,9.2-7,14.6-9
	c5.9-2.2,12.2-3.2,18.4-3.2c6.3-0.1,12.7,1,18.6,3.1c5.5,2,10.5,5,14.7,9c4.2,4,7.5,8.8,9.7,14.2c2.4,5.9,3.6,12.3,3.5,18.7
	c0.1,6.3-1.1,12.6-3.5,18.4c-2.2,5.4-5.5,10.3-9.7,14.4c-4.2,4.1-9.2,7.3-14.7,9.4c-5.9,2.3-12.3,3.4-18.6,3.3
	c-6.3,0.1-12.6-1.1-18.4-3.3c-5.4-2.1-10.4-5.3-14.6-9.4c-4.1-4.1-7.4-9-9.6-14.4C803.3,198.2,802.2,191.9,802.2,185.6z
	 M818.9,185.6c-0.1,4.3,0.6,8.6,2.1,12.7c1.3,3.7,3.4,7.1,6.1,10c2.6,2.9,5.8,5.1,9.4,6.7c3.8,1.6,7.9,2.4,12,2.4
	c4.1,0,8.2-0.8,12-2.4c3.6-1.5,6.8-3.8,9.4-6.6c2.7-2.9,4.7-6.3,6.1-10c1.5-4.1,2.2-8.4,2.1-12.7c0-4.2-0.7-8.4-2.1-12.4
	c-1.3-3.7-3.4-7.1-6-10c-2.6-2.9-5.8-5.1-9.4-6.7c-3.8-1.7-8-2.5-12.2-2.4c-4.2-0.1-8.3,0.8-12.1,2.4c-3.5,1.6-6.7,3.9-9.3,6.7
	c-2.6,2.9-4.7,6.3-6,10C819.6,177.2,818.9,181.4,818.9,185.6z"/>
<path class="st0" d="M11.9,102.5c0,0,58,10.2,105.1,34.1c2.2,1.1,10.8,8.1,10.4,10.5C122.1,179.8,70,266.3,70,266.3l231.5-207
	L11.9,102.5z"/>
<path class="st0" d="M192.2,269.7c0,0,23-58.2,29.4-78.5c5-16,16.4-66.9,16.4-66.9l-60.1,55.3L192.2,269.7z"/>
<circle class="st0" cx="167.6" cy="43.7" r="28"/>
</svg>
